<svg width="32" height="32" viewBox="0 0 32 32" fill="none" xmlns="http://www.w3.org/2000/svg">
<circle cx="16" cy="16" r="16" fill="white"/>
<path opacity="0.2" d="M19.7978 9.97412C18.9804 9.50706 18.0463 9.27353 17.0121 9.27353H13.0087C12.6417 9.27353 12.3415 9.39029 12.0913 9.64051C11.8578 9.87404 11.7243 10.191 11.7243 10.5579V24.1194C11.7243 24.4864 11.8578 24.7867 12.0913 25.0369C12.3415 25.2871 12.6417 25.4039 13.0087 25.4039C13.3924 25.4039 13.6926 25.2704 13.9428 25.0202C14.1764 24.77 14.3098 24.4697 14.3098 24.1028V19.9826H17.0288C18.0463 19.9826 18.9804 19.7491 19.7978 19.3154C20.6152 18.865 21.2657 18.2311 21.7161 17.4304C22.1665 16.6298 22.4 15.7123 22.4 14.7115C22.4 13.6773 22.1665 12.7265 21.7161 11.9091C21.249 11.0751 20.6152 10.4245 19.7978 9.97412ZM17.0121 17.5639H14.3098V11.6922H17.0288C17.8795 11.6922 18.5467 11.9758 19.0972 12.543C19.6477 13.1101 19.9146 13.8274 19.9146 14.7115C19.9146 15.5622 19.6477 16.2294 19.1139 16.7632C18.5467 17.297 17.8628 17.5639 17.0121 17.5639Z" fill="#1B91FF"/>
<path d="M18.9488 8.70059C18.1314 8.23353 17.1973 8 16.1631 8H12.1597C11.7927 8 11.4925 8.11677 11.2423 8.36698C11.0088 8.60051 10.8753 8.91744 10.8753 9.28442V22.8459C10.8753 23.2129 11.0088 23.5131 11.2423 23.7633C11.4925 24.0136 11.7927 24.1303 12.1597 24.1303C12.5434 24.1303 12.8436 23.9969 13.0939 23.7467C13.3274 23.4965 13.4608 23.1962 13.4608 22.8292V18.7091H16.1798C17.1973 18.7091 18.1314 18.4755 18.9488 18.0418C19.7662 17.5915 20.4167 16.9576 20.8671 16.1569C21.3175 15.3562 21.551 14.4388 21.551 13.4379C21.551 12.4037 21.3175 11.4529 20.8671 10.6356C20.4 9.80153 19.7662 9.15097 18.9488 8.70059ZM16.1631 16.2904H13.4608V10.4187H16.1798C17.0305 10.4187 17.6977 10.7023 18.2482 11.2694C18.7987 11.8366 19.0656 12.5539 19.0656 13.4379C19.0656 14.2887 18.7987 14.9559 18.2649 15.4897C17.6977 16.0235 17.0138 16.2904 16.1631 16.2904Z" fill="#1B91FF"/>
</svg>
