<svg width="76" height="24" viewBox="0 0 76 24" fill="none" xmlns="http://www.w3.org/2000/svg">
<path d="M14.6074 2.66014C13.8372 2.22005 12.957 2 11.9825 2H8.21026C7.86447 2 7.58156 2.11002 7.34579 2.34579C7.12574 2.56584 7 2.86447 7 3.21026V15.9888C7 16.3346 7.12574 16.6175 7.34579 16.8532C7.58156 17.089 7.86447 17.199 8.21026 17.199C8.57177 17.199 8.85469 17.0733 9.09046 16.8375C9.31051 16.6018 9.43625 16.3188 9.43625 15.9731V12.0908H11.9982C12.957 12.0908 13.8372 11.8707 14.6074 11.4621C15.3775 11.0377 15.9905 10.4404 16.4149 9.68597C16.8393 8.93152 17.0593 8.06704 17.0593 7.12398C17.0593 6.14948 16.8393 5.25357 16.4149 4.4834C15.9748 3.69751 15.3775 3.08452 14.6074 2.66014ZM11.9825 9.81171H9.43625V4.27907H11.9982C12.7998 4.27907 13.4285 4.54627 13.9472 5.08067C14.4659 5.61508 14.7174 6.29094 14.7174 7.12398C14.7174 7.92558 14.4659 8.55429 13.963 9.05726C13.4285 9.56022 12.7841 9.81171 11.9825 9.81171Z" fill="#1B91FF"/>
<path d="M25.5312 6.63673C25.1225 6.41668 24.5567 6.30666 23.8494 6.30666C23.1893 6.30666 22.5605 6.44812 21.979 6.6996C21.586 6.88821 21.2245 7.10826 20.9102 7.39118C20.8473 6.76247 20.4386 6.41668 19.7471 6.41668C19.3856 6.41668 19.0869 6.5267 18.8826 6.73103C18.6783 6.93536 18.5682 7.234 18.5682 7.59551V16.0202C18.5682 16.3974 18.6783 16.6961 18.8826 16.9004C19.0869 17.1047 19.3856 17.199 19.7471 17.199C20.1243 17.199 20.4229 17.089 20.6273 16.8847C20.8316 16.6804 20.9259 16.3817 20.9259 16.0202V10.519C20.9259 9.8903 21.1617 9.40305 21.6646 9.02582C22.1676 8.6486 22.8592 8.44427 23.7079 8.44427C24.0066 8.44427 24.3995 8.49142 24.8868 8.57001C25.0282 8.60144 25.1383 8.61716 25.2168 8.61716C25.7198 8.61716 26.0499 8.34996 26.1913 7.84699C26.2071 7.78412 26.2228 7.70553 26.2228 7.57979C26.2228 7.20257 25.987 6.87249 25.5312 6.63673Z" fill="#1B91FF"/>
<path d="M34.6789 7.04539C33.8616 6.57385 32.9185 6.33809 31.8969 6.33809C30.8595 6.33809 29.9164 6.57385 29.0834 7.04539C28.2503 7.51692 27.6059 8.16134 27.1501 8.99438C26.6943 9.8117 26.4585 10.7705 26.4585 11.8236C26.4585 12.8609 26.6943 13.804 27.1501 14.637C27.6059 15.4701 28.2661 16.1145 29.0834 16.586C29.9007 17.0576 30.8595 17.2933 31.8969 17.2933C32.9342 17.2933 33.8773 17.0576 34.6946 16.586C35.5119 16.1145 36.1564 15.4701 36.6279 14.637C37.0837 13.8197 37.3195 12.8609 37.3195 11.8236C37.3195 10.7705 37.0837 9.8117 36.6122 8.99438C36.1406 8.16134 35.4962 7.5012 34.6789 7.04539ZM31.8811 15.1086C31.2839 15.1086 30.7495 14.9671 30.2779 14.6842C29.8064 14.4013 29.4292 14.0083 29.162 13.5211C28.8948 13.0181 28.7533 12.4523 28.7533 11.8079C28.7533 11.1634 28.8948 10.5976 29.162 10.0946C29.4292 9.59166 29.8064 9.19871 30.2779 8.91579C30.7495 8.63288 31.2839 8.49142 31.8811 8.49142C32.4784 8.49142 33.0128 8.63288 33.4843 8.91579C33.9559 9.19871 34.3174 9.59166 34.5846 10.0789C34.8518 10.5819 34.9775 11.1634 34.9775 11.7921C34.9775 12.4366 34.8518 13.0024 34.5846 13.5054C34.3174 13.9926 33.9559 14.3856 33.4843 14.6685C33.0285 14.9671 32.4784 15.1086 31.8811 15.1086Z" fill="#1B91FF"/>
<path d="M47.2975 7.0611C46.4645 6.58957 45.5371 6.33809 44.5312 6.33809C43.5253 6.33809 42.5979 6.57385 41.7806 7.0611C40.9633 7.53264 40.3031 8.2085 39.8316 9.02582C39.3601 9.85886 39.1086 10.8019 39.1086 11.8079V20.4055C39.1086 20.767 39.2186 21.0499 39.4544 21.2699C39.6744 21.49 39.9731 21.6 40.3031 21.6C40.6489 21.6 40.9476 21.49 41.1676 21.2699C41.3877 21.0499 41.4977 20.7512 41.4977 20.4055V15.9259C41.8749 16.2874 42.2993 16.5703 42.7708 16.8061C43.431 17.1204 44.154 17.2776 44.9084 17.2776C45.8515 17.2776 46.716 17.0419 47.4861 16.5703C48.2563 16.0988 48.8693 15.4387 49.3094 14.6056C49.7495 13.7726 49.9695 12.8452 49.9695 11.8236C49.9695 10.8019 49.7338 9.87458 49.2622 9.04154C48.7907 8.19278 48.1306 7.53264 47.2975 7.0611ZM47.2347 13.5054C46.9675 14.0083 46.5902 14.4013 46.1187 14.6842C45.6472 14.9671 45.1128 15.1086 44.5312 15.1086C43.9497 15.1086 43.4153 14.9671 42.9437 14.6842C42.4722 14.4013 42.095 14.0083 41.8278 13.5054C41.5606 13.0024 41.4191 12.4366 41.4191 11.8236C41.4191 11.1949 41.5606 10.629 41.8278 10.1261C42.095 9.62309 42.4722 9.23015 42.9437 8.94723C43.4153 8.66431 43.9497 8.52285 44.5312 8.52285C45.1128 8.52285 45.6472 8.66431 46.1187 8.94723C46.5902 9.23015 46.9675 9.62309 47.2347 10.1261C47.5019 10.629 47.6433 11.1949 47.6433 11.8236C47.6433 12.4366 47.5176 13.0024 47.2347 13.5054Z" fill="white"/>
<path d="M59.7931 7.01395C59.0544 6.55814 58.1742 6.33809 57.1682 6.33809C56.1466 6.33809 55.2192 6.57385 54.4176 7.04539C53.616 7.51692 52.9716 8.17706 52.5158 9.0101C52.06 9.84314 51.8399 10.7862 51.8399 11.8236C51.8399 12.8609 52.0757 13.8197 52.563 14.637C53.0345 15.4701 53.7103 16.1145 54.5748 16.586C55.4236 17.0419 56.3981 17.2776 57.4669 17.2776C58.0642 17.2776 58.7086 17.1676 59.3687 16.9475C60.0289 16.7275 60.579 16.4289 61.0348 16.0831C61.2863 15.8945 61.4278 15.6273 61.4278 15.3286C61.4278 15.0143 61.2863 14.7471 61.0034 14.5113C60.8148 14.3384 60.579 14.2598 60.2804 14.2598C59.9817 14.2598 59.7302 14.3541 59.5102 14.5113C59.2744 14.6999 58.9444 14.8571 58.5671 14.9828C58.1899 15.1086 57.8127 15.1714 57.4669 15.1714C56.571 15.1714 55.8008 14.92 55.1878 14.417C54.6377 13.9612 54.2919 13.4111 54.119 12.7038H61.0034C61.3177 12.7038 61.5849 12.6095 61.7893 12.4051C61.9936 12.2008 62.1036 11.9493 62.1036 11.635C62.1036 10.6133 61.8993 9.68596 61.5063 8.88436C61.1134 8.09847 60.5318 7.46976 59.7931 7.01395ZM57.1682 8.42855C57.9384 8.42855 58.5514 8.64859 59.0229 9.12012C59.4473 9.52879 59.7145 10.0789 59.856 10.739H54.1504C54.3233 10.0789 54.6377 9.5445 55.0935 9.13584C55.6122 8.66431 56.3038 8.42855 57.1682 8.42855Z" fill="white"/>
<path d="M68.0292 15.1872C67.8249 14.9671 67.5577 14.8414 67.2433 14.8414H66.7718C66.646 14.8414 66.4732 14.8099 66.3003 14.5113C66.1431 14.2441 66.0645 13.8983 66.0645 13.4739V3.17883C66.0645 2.83304 65.9545 2.55012 65.7344 2.33007C65.4987 2.11002 65.2157 2 64.8857 2C64.5399 2 64.257 2.11002 64.0369 2.33007C63.8169 2.55012 63.7068 2.83304 63.7068 3.17883V13.4739C63.7068 14.1655 63.8326 14.8099 64.0841 15.3758C64.3355 15.9416 64.7128 16.3974 65.1686 16.7118C65.6401 17.0261 66.1745 17.199 66.7561 17.199H66.7875C67.2119 17.199 67.5734 17.089 67.8563 16.8847C68.1549 16.6646 68.3121 16.366 68.3121 16.0202C68.3278 15.6901 68.2178 15.4072 68.0292 15.1872Z" fill="white"/>
</svg>
