<svg width="214" height="80" viewBox="0 0 214 80" fill="none" xmlns="http://www.w3.org/2000/svg">
<path d="M33.8398 11.1387C31.3945 9.71291 28.5999 9 25.5059 9H13.529C12.4311 9 11.5328 9.35646 10.7843 10.1203C10.0856 10.8332 9.6864 11.8007 9.6864 12.921V54.3207C9.6864 55.441 10.0856 56.3576 10.7843 57.1215C11.5328 57.8853 12.4311 58.2418 13.529 58.2418C14.6768 58.2418 15.575 57.8344 16.3236 57.0705C17.0223 56.3067 17.4215 55.3901 17.4215 54.2698V41.692H25.5558C28.5999 41.692 31.3945 40.9791 33.8398 39.6552C36.2851 38.2803 38.2313 36.3452 39.5787 33.9009C40.9261 31.4567 41.6248 28.656 41.6248 25.6006C41.6248 22.4435 40.9261 19.5409 39.5787 17.0457C38.1814 14.4996 36.2851 12.5136 33.8398 11.1387ZM25.5059 34.3083H17.4215V16.3837H25.5558C28.1009 16.3837 30.097 17.2494 31.7439 18.9807C33.3907 20.7121 34.1891 22.9018 34.1891 25.6006C34.1891 28.1977 33.3907 30.2346 31.7938 31.8641C30.097 33.4936 28.051 34.3083 25.5059 34.3083Z" fill="#00254D"/>
<path d="M68.5229 24.022C67.2254 23.3091 65.4289 22.9526 63.1832 22.9526C61.0872 22.9526 59.0911 23.4109 57.2446 24.2257C55.9971 24.8368 54.8493 25.5497 53.8512 26.4663C53.6516 24.4294 52.3541 23.3091 50.1583 23.3091C49.0105 23.3091 48.0624 23.6655 47.4136 24.3275C46.7649 24.9895 46.4155 25.957 46.4155 27.1283V54.4225C46.4155 55.6447 46.7649 56.6122 47.4136 57.2742C48.0624 57.9362 49.0105 58.2417 50.1583 58.2417C51.356 58.2417 52.3042 57.8853 52.9529 57.2233C53.6017 56.5613 53.9011 55.5938 53.9011 54.4225V36.5998C53.9011 34.5629 54.6497 32.9843 56.2466 31.7622C57.8435 30.54 60.0393 29.8781 62.7341 29.8781C63.6822 29.8781 64.9298 30.0308 66.4768 30.2854C66.926 30.3873 67.2753 30.4382 67.5248 30.4382C69.1217 30.4382 70.1697 29.5725 70.6189 27.943C70.6688 27.7393 70.7187 27.4847 70.7187 27.0773C70.7187 25.8552 69.9701 24.7858 68.5229 24.022Z" fill="#00254D"/>
<path d="M97.5667 25.3461C94.9717 23.8184 91.9775 23.0546 88.7337 23.0546C85.4401 23.0546 82.4459 23.8184 79.801 25.3461C77.1561 26.8737 75.11 28.9615 73.6628 31.6604C72.2156 34.3084 71.467 37.4146 71.467 40.8264C71.467 44.1873 72.2156 47.2426 73.6628 49.9415C75.11 52.6403 77.206 54.7282 79.801 56.2558C82.396 57.7835 85.4401 58.5473 88.7337 58.5473C92.0274 58.5473 95.0216 57.7835 97.6166 56.2558C100.212 54.7282 102.258 52.6403 103.755 49.9415C105.202 47.2935 105.951 44.1873 105.951 40.8264C105.951 37.4146 105.202 34.3084 103.705 31.6604C102.208 28.9615 100.162 26.8228 97.5667 25.3461ZM88.6838 51.4691C86.7875 51.4691 85.0908 51.0108 83.5937 50.0942C82.0965 49.1776 80.8988 47.9046 80.0505 46.326C79.2021 44.6965 78.753 42.8633 78.753 40.7755C78.753 38.6877 79.2021 36.8545 80.0505 35.225C80.8988 33.5955 82.0965 32.3224 83.5937 31.4058C85.0908 30.4892 86.7875 30.0309 88.6838 30.0309C90.5802 30.0309 92.2769 30.4892 93.774 31.4058C95.2711 32.3224 96.4189 33.5955 97.2673 35.174C98.1156 36.8036 98.5149 38.6877 98.5149 40.7246C98.5149 42.8124 98.1156 44.6456 97.2673 46.2751C96.4189 47.8537 95.2711 49.1267 93.774 50.0433C92.3268 51.0108 90.5802 51.4691 88.6838 51.4691Z" fill="#00254D"/>
<path d="M137.631 25.397C134.986 23.8693 132.042 23.0546 128.848 23.0546C125.654 23.0546 122.71 23.8184 120.115 25.397C117.52 26.9247 115.424 29.1143 113.927 31.7623C112.43 34.4611 111.631 37.5165 111.631 40.7755V68.6299C111.631 69.8011 111.981 70.7177 112.729 71.4306C113.428 72.1436 114.376 72.5 115.424 72.5C116.522 72.5 117.47 72.1436 118.169 71.4306C118.867 70.7177 119.217 69.7502 119.217 68.6299V54.1171C120.414 55.2883 121.762 56.2049 123.259 56.9687C125.355 57.9872 127.65 58.4964 130.046 58.4964C133.04 58.4964 135.785 57.7326 138.23 56.2049C140.675 54.6772 142.622 52.5385 144.019 49.8396C145.416 47.1408 146.115 44.1364 146.115 40.8264C146.115 37.5165 145.366 34.5121 143.869 31.8132C142.372 29.0634 140.276 26.9247 137.631 25.397ZM137.432 46.2751C136.583 47.9046 135.386 49.1776 133.888 50.0942C132.391 51.0108 130.695 51.4691 128.848 51.4691C127.002 51.4691 125.305 51.0108 123.808 50.0942C122.311 49.1776 121.113 47.9046 120.265 46.2751C119.416 44.6456 118.967 42.8124 118.967 40.8264C118.967 38.7895 119.416 36.9563 120.265 35.3268C121.113 33.6973 122.311 32.4242 123.808 31.5076C125.305 30.591 127.002 30.1327 128.848 30.1327C130.695 30.1327 132.391 30.591 133.888 31.5076C135.386 32.4242 136.583 33.6973 137.432 35.3268C138.28 36.9563 138.729 38.7895 138.729 40.8264C138.729 42.8124 138.33 44.6456 137.432 46.2751Z" fill="#0284C7"/>
<path d="M177.305 25.2442C174.959 23.7675 172.164 23.0546 168.971 23.0546C165.727 23.0546 162.783 23.8184 160.237 25.3461C157.692 26.8737 155.646 29.0125 154.199 31.7113C152.752 34.4102 152.053 37.4655 152.053 40.8264C152.053 44.1873 152.802 47.2935 154.349 49.9415C155.846 52.6403 157.992 54.7282 160.736 56.2558C163.431 57.7326 166.525 58.4964 169.919 58.4964C171.815 58.4964 173.861 58.1399 175.957 57.427C178.053 56.7141 179.8 55.7466 181.247 54.6263C182.045 54.0152 182.495 53.1496 182.495 52.182C182.495 51.1636 182.045 50.2979 181.147 49.5341C180.548 48.9739 179.8 48.7193 178.852 48.7193C177.903 48.7193 177.105 49.0249 176.406 49.5341C175.658 50.1452 174.61 50.6544 173.412 51.0618C172.214 51.4691 171.017 51.6728 169.919 51.6728C167.074 51.6728 164.629 50.8581 162.683 49.2286C160.936 47.7518 159.838 45.9695 159.289 43.678H181.147C182.145 43.678 182.994 43.3725 183.642 42.7105C184.291 42.0485 184.64 41.2338 184.64 40.2153C184.64 36.9054 183.992 33.901 182.744 31.304C181.496 28.7578 179.65 26.721 177.305 25.2442ZM168.971 29.8272C171.416 29.8272 173.362 30.5401 174.859 32.0678C176.207 33.3918 177.055 35.174 177.504 37.3128H159.389C159.938 35.174 160.936 33.4427 162.383 32.1187C164.03 30.591 166.226 29.8272 168.971 29.8272Z" fill="#0284C7"/>
<path d="M203.454 51.7237C202.805 51.0108 201.957 50.6034 200.959 50.6034H199.462C199.062 50.6034 198.513 50.5016 197.964 49.5341C197.465 48.6684 197.216 47.5481 197.216 46.1732V12.8192C197.216 11.6989 196.867 10.7823 196.168 10.0694C195.419 9.35646 194.521 9 193.473 9C192.375 9 191.477 9.35646 190.778 10.0694C190.08 10.7823 189.73 11.6989 189.73 12.8192V46.1732C189.73 48.4138 190.13 50.5016 190.928 52.3348C191.726 54.168 192.924 55.6447 194.371 56.6632C195.869 57.6816 197.565 58.2418 199.412 58.2418H199.511C200.859 58.2418 202.007 57.8853 202.905 57.2233C203.853 56.5104 204.352 55.5429 204.352 54.4226C204.402 53.3532 204.053 52.4366 203.454 51.7237Z" fill="#0284C7"/>
</svg>
