<svg width="52" height="52" viewBox="0 0 52 52" fill="none" xmlns="http://www.w3.org/2000/svg">
<g clip-path="url(#clip0_6325_67265)">
<circle cx="26" cy="26" r="26" fill="#00254D"/>
<path opacity="0.85" d="M32.1714 16.208C30.8432 15.449 29.3253 15.0695 27.6447 15.0695H21.1392C20.5428 15.0695 20.0549 15.2592 19.6483 15.6658C19.2689 16.0453 19.052 16.5603 19.052 17.1567V39.1941C19.052 39.7904 19.2689 40.2783 19.6483 40.6849C20.0549 41.0915 20.5428 41.2813 21.1392 41.2813C21.7626 41.2813 22.2505 41.0644 22.6571 40.6578C23.0366 40.2512 23.2535 39.7633 23.2535 39.167V32.4717H27.6718C29.3253 32.4717 30.8432 32.0922 32.1714 31.3875C33.4996 30.6556 34.5568 29.6256 35.2887 28.3245C36.0205 27.0234 36.4 25.5325 36.4 23.9061C36.4 22.2255 36.0205 20.6805 35.2887 19.3523C34.5297 17.997 33.4996 16.9398 32.1714 16.208ZM27.6447 28.5413H23.2535V18.9999H27.6718C29.0542 18.9999 30.1385 19.4607 31.033 20.3823C31.9275 21.3039 32.3612 22.4695 32.3612 23.9061C32.3612 25.2886 31.9275 26.3728 31.0601 27.2402C30.1385 28.1076 29.0271 28.5413 27.6447 28.5413Z" fill="#0284C7"/>
<path d="M30.7918 14.1385C29.4636 13.3795 27.9456 13 26.2651 13H19.7595C19.1632 13 18.6753 13.1897 18.2687 13.5963C17.8892 13.9758 17.6724 14.4908 17.6724 15.0872V37.1246C17.6724 37.7209 17.8892 38.2088 18.2687 38.6154C18.6753 39.022 19.1632 39.2118 19.7595 39.2118C20.383 39.2118 20.8709 38.9949 21.2775 38.5883C21.657 38.1817 21.8738 37.6938 21.8738 37.0975V30.4022H26.2922C27.9456 30.4022 29.4636 30.0227 30.7918 29.318C32.12 28.5861 33.1772 27.5561 33.909 26.255C34.6409 24.9539 35.0204 23.463 35.0204 21.8366C35.0204 20.1561 34.6409 18.611 33.909 17.2828C33.1501 15.9275 32.12 14.8703 30.7918 14.1385ZM26.2651 26.4718H21.8738V16.9304H26.2922C27.6746 16.9304 28.7588 17.3912 29.6533 18.3128C30.5478 19.2344 30.9815 20.4 30.9815 21.8366C30.9815 23.2191 30.5479 24.3033 29.6804 25.1707C28.7588 26.0381 27.6475 26.4718 26.2651 26.4718Z" fill="white"/>
</g>
<defs>
<clipPath id="clip0_6325_67265">
<rect width="52" height="52" fill="white"/>
</clipPath>
</defs>
</svg>
